<?xml version="1.0" encoding="iso-8859-1"?>
<!-- Generator: Adobe Illustrator 19.0.0, SVG Export Plug-In . SVG Version: 6.00 Build 0)  -->
<svg version="1.1" id="Layer_1" xmlns="http://www.w3.org/2000/svg" xmlns:xlink="http://www.w3.org/1999/xlink" x="0px" y="0px"
	 viewBox="0 0 511.999 511.999" style="enable-background:new 0 0 511.999 511.999;" xml:space="preserve">
<path style="fill:#F2F2F2;" d="M476.25,8.636c15.174,66.728-4.594,137.451-53.88,186.737L289.997,327.758l-19.48-19.48
	l124.361-124.361c41.181-41.17,61.754-97.306,58.554-153.58c7.299-6.562,14.437-13.32,21.379-20.274L476.25,8.636z"/>
<path style="fill:#CCCCCC;" d="M256.173,194.36l25.155-25.167l62.376-62.376l6.102-3.316c37.301-20.297,72.07-44.854,103.626-73.163
	c3.201,56.274-17.373,112.41-58.554,153.58L270.517,308.278l-64.137-64.137l24.626-24.626L256.173,194.36z"/>
<path style="fill:#808080;" d="M131.939,485.828l-9.475,9.463c-10.776,10.764-28.241,10.764-39.017,0l-44.6-44.612
	c-10.776-10.764-10.776-28.241,0-39.005l9.475-9.463l83.605,83.605L131.939,485.828z"/>
<polygon style="fill:#666666;" points="260.789,356.966 209.247,408.508 157.704,460.051 131.939,485.828 131.927,485.816 
	48.322,402.211 206.38,244.141 270.517,308.278 289.997,327.758 "/>
<polygon style="fill:#4D4D4D;" points="260.789,356.966 209.247,408.508 157.704,460.051 131.939,485.828 131.927,485.816 
	102.558,455.825 260.616,297.756 270.517,308.278 289.997,327.758 "/>
<path style="fill:#333333;" d="M484.666,6.718c-0.698-3.066-3.006-5.51-6.027-6.38c-3.016-0.87-6.274-0.031-8.499,2.192l-1.43,1.43
	c-36.409,36.409-77.803,67.347-123.033,91.954l-6.102,3.319c-0.728,0.396-1.394,0.893-1.98,1.479L206.38,231.926l-31.12-31.12
	c-3.372-3.371-8.838-3.372-12.212,0c-3.372,3.372-3.372,8.839,0,12.21l31.12,31.12L32.743,405.565
	c-6.841,6.841-10.609,15.936-10.609,25.611c0,9.674,3.767,18.77,10.608,25.611l44.603,44.603
	c6.841,6.841,15.937,10.609,25.611,10.609c9.675,0,18.772-3.767,25.612-10.609l161.427-161.428l37.42,37.42
	c1.687,1.685,3.897,2.529,6.106,2.529c2.209,0,4.42-0.843,6.106-2.529c3.372-3.372,3.372-8.839,0-12.21l-37.42-37.42
	l126.268-126.269c25.113-25.113,43.547-56.429,53.311-90.561C491.474,77.054,492.469,41.02,484.666,6.718z M231.006,231.722
	l12.794,12.794c1.687,1.685,3.897,2.529,6.106,2.529s4.42-0.843,6.106-2.529c3.372-3.372,3.372-8.839,0-12.21l-12.794-12.794
	l12.95-12.95l12.794,12.794c1.687,1.685,3.897,2.529,6.106,2.529s4.42-0.843,6.106-2.529c3.372-3.372,3.372-8.839,0-12.21
	l-12.794-12.794l12.95-12.95l12.794,12.794c1.687,1.685,3.897,2.529,6.106,2.529s4.42-0.843,6.106-2.529
	c3.372-3.372,3.372-8.839,0-12.21l-12.794-12.794l55.384-55.384l5.006-2.723c32.385-17.619,62.858-38.392,91.038-62.004
	c-1.844,48.207-21.789,94.33-56.192,128.733L270.52,296.065l-51.928-51.929L231.006,231.722z M102.955,494.73
	c-5.061,0-9.82-1.971-13.4-5.55l-44.603-44.603c-3.579-3.579-5.55-8.339-5.55-13.401c0-5.062,1.971-9.822,5.55-13.401l3.361-3.361
	l71.403,71.403l-3.362,3.362C112.777,492.759,108.018,494.73,102.955,494.73z M260.788,344.748l-22.694-22.694
	c-3.373-3.372-8.839-3.372-12.212,0c-3.372,3.372-3.372,8.839,0,12.21l22.694,22.694l-13.561,13.561l-37.66-37.659
	c-3.373-3.372-8.839-3.372-12.212,0c-3.372,3.372-3.372,8.839,0,12.21l37.66,37.66l-13.561,13.561l-44.865-44.864
	c-3.373-3.372-8.839-3.372-12.212,0c-3.372,3.372-3.372,8.84,0,12.21l44.865,44.865l-13.56,13.56l-44.864-44.864
	c-3.373-3.372-8.839-3.372-12.212,0c-3.372,3.372-3.372,8.839,0,12.21l44.865,44.865l-13.561,13.561l-44.865-44.865
	c-3.373-3.372-8.839-3.372-12.212,0c-3.372,3.372-3.372,8.839,0,12.21l44.865,44.865l-13.561,13.561l-71.403-71.403l145.854-145.856
	l71.404,71.404L260.788,344.748z M465.183,106.172c-8.958,31.32-25.875,60.055-48.919,83.099l-126.268,126.27l-7.265-7.265
	l118.254-118.254c41.225-41.225,63.405-97.889,61.25-156.038c2.844-2.59,5.67-5.2,8.461-7.851
	C474.474,52.807,472.617,80.186,465.183,106.172z"/>
<g>
</g>
<g>
</g>
<g>
</g>
<g>
</g>
<g>
</g>
<g>
</g>
<g>
</g>
<g>
</g>
<g>
</g>
<g>
</g>
<g>
</g>
<g>
</g>
<g>
</g>
<g>
</g>
<g>
</g>
</svg>
