<svg xmlns="http://www.w3.org/2000/svg" xmlns:xlink="http://www.w3.org/1999/xlink" id="Layer_1" x="0" y="0" enable-background="new 0 0 511.997 511.997" version="1.1" viewBox="0 0 511.997 511.997" xml:space="preserve"><path fill="#4D4D4D" d="M269.402,246.476c0,0,2.348,28.278,25.788,40.575c23.44,12.297,13.065,15.37,13.065,15.37	l-28.696,14.663l-19.252-7.747l-11.228-19.981l4.611-24.209L269.402,246.476z"/><g><path fill="#666" d="M97.002,314.687c-6.525,17.223-4.853,36.935,5.28,53.028l-1.176,0.3 c-8.496,1.66-17.626-0.83-24.209-7.412c-10.536-10.537-10.536-27.621,0-38.157c5.441-5.441,12.635-8.07,19.759-7.897 L97.002,314.687z"/><path fill="#666" d="M442.989,58.906l-75.9,75.9l-2.167,0.542c-8.519-11.597-7.539-27.99,2.951-38.48l56.544-56.533 L442.989,58.906z"/></g><path fill="gray" d="M302.902,307.228l0.023,0.023l-4.623,4.634c-16.151,16.139-18.571,41.466-5.775,60.372l43.771,64.706	c4.323,6.386,3.504,14.94-1.948,20.393l-38.227,38.227c-11.701,11.689-31.125,9.96-40.555-3.631l-62.55-90.091	c-9.972-14.352-25.903-21.984-42.077-21.984c-10.675,0-21.442,3.32-30.664,10.237l-13.257-15.885	c-1.741-2.087-3.32-4.265-4.738-6.513c-10.133-16.093-11.805-35.806-5.28-53.028c1.764-4.657,4.115-9.119,7.067-13.292	c1.937-2.744,4.139-5.36,6.582-7.804l273.43-273.442l9.972-9.972l30.364,30.157l-56.544,56.533	c-10.49,10.49-11.47,26.883-2.951,38.48c0.888,1.199,1.868,2.352,2.951,3.435l4.53,4.519l-38.169,38.169l-1.787,1.798	l-34.976,35.056l-28.07,28.151l-6.167,6.179c-16.462,16.462-17.776,41.835-2.928,56.683c5.188,5.188,12.104,7.747,19.252,7.747	c8.185,0,16.669-3.343,23.263-9.937L302.902,307.228z"/><g><path fill="#333" d="M451.637,58.907c0-2.293-0.911-4.492-2.532-6.113l-18.577-18.577l-0.001,0.001 c-0.007-0.007-0.013-0.015-0.021-0.022l-30.36-30.149c-3.381-3.357-8.837-3.347-12.207,0.022l-3.855,3.855l-5.392-5.392 c-3.375-3.377-8.85-3.375-12.226,0c-3.376,3.377-3.376,8.851,0.001,12.228l5.39,5.39L111.819,280.189l-5.354-5.354 c-3.378-3.377-8.851-3.377-12.228,0s-3.377,8.85,0,12.227l5.613,5.613c-3.41,4.185-6.291,8.731-8.606,13.545 c-7.694,1.038-14.931,4.574-20.465,10.109c-13.892,13.892-13.892,36.497,0,50.39c6.753,6.754,15.815,10.441,25.158,10.441 c0.77,0,1.544-0.035,2.317-0.085c0.688,0.914,1.397,1.816,2.135,2.699l13.256,15.877c2.947,3.532,8.144,4.135,11.824,1.375 c9.321-6.993,20.795-9.821,32.298-7.961c11.504,1.858,21.501,8.154,28.148,17.726l62.555,90.09 c5.961,8.585,15.349,14.042,25.759,14.974c1.057,0.095,2.111,0.142,3.161,0.142c9.292,0,18.207-3.665,24.848-10.305l38.225-38.227 c8.365-8.366,9.626-21.549,2.997-31.347l-43.774-64.707c-10.449-15.449-8.463-36.233,4.726-49.421l27.595-27.595 c16.502-16.502,20.484-41.567,9.906-62.371l-7.167-14.094c-4.14-8.143-2.633-17.932,3.725-24.46l40.044-40.061 c1.621-1.622,2.532-3.82,2.532-6.113c0-2.293-0.911-4.492-2.533-6.113l-0.786-0.786l71.38-71.38 C450.726,63.399,451.637,61.2,451.637,58.907z M83.006,354.494c-7.151-7.151-7.151-18.786,0-25.937 c0.654-0.654,1.358-1.231,2.084-1.771c-0.266,1.994-0.453,4.006-0.544,6.035c-0.39,8.684,0.873,17.25,3.637,25.304 C86.289,357.234,84.532,356.019,83.006,354.494z M264.404,264.855c5.952,15.382,18.792,28.643,33.814,34.875 c0,0-2.104,1.879-2.407,2.155c-4.31,3.936-9.644,6.241-15.147,6.525c-5.528,0.284-10.61-1.556-14.242-5.188 C256.636,293.437,256.178,277.454,264.404,264.855z M319.778,278.171l-7.704,7.704c-16.307-2.641-31.937-19.327-33.741-36.119 l25.218-25.28l0.055,0.055c4.075-4.023,7.868-6.076,10.649-5.788c3.085,0.32,5.306,3.556,5.327,3.589l-0.071-0.112 c0,0,0.012-0.016,0.027-0.038l6.957,13.682C333.672,249.976,330.972,266.977,319.778,278.171z M257.114,246.542 c-19.803,19.804-21.111,50.716-2.92,68.908c6.632,6.632,15.49,10.236,25.138,10.278c-6.256,16.669-4.451,35.881,6.03,51.375 l43.774,64.707c1.993,2.948,1.614,6.913-0.903,9.43l-38.224,38.225c-3.758,3.757-8.954,5.637-14.242,5.167 c-5.292-0.474-10.065-3.249-13.097-7.613l-62.555-90.091c-9.348-13.465-23.41-22.32-39.593-24.935 c-3.053-0.493-6.101-0.742-9.129-0.772l45.85-45.85c3.377-3.376,3.377-8.851,0-12.226c-3.378-3.377-8.851-3.377-12.228,0 l-64.161,64.161l-7.193-8.616c-12.836-15.375-15.279-35.929-7.714-53.199l19.338,19.338c1.689,1.689,3.902,2.533,6.114,2.533 s4.426-0.844,6.114-2.533c3.377-3.376,3.377-8.851,0-12.226l-21.802-21.802c0.347-0.368,0.688-0.739,1.048-1.099l7.399-7.399 l21.827,21.827c1.689,1.689,3.902,2.533,6.114,2.533c2.212,0,4.426-0.844,6.114-2.533c3.377-3.376,3.377-8.851,0-12.226 l-21.827-21.827l8.472-8.472l21.826,21.827c1.689,1.689,3.901,2.533,6.114,2.533c2.212,0,4.426-0.844,6.113-2.533 c3.378-3.377,3.378-8.851,0.001-12.228l-21.827-21.827l8.472-8.472l21.827,21.826c1.689,1.689,3.902,2.533,6.114,2.533 c2.212,0,4.426-0.844,6.114-2.533c3.377-3.377,3.377-8.851,0-12.227l-21.827-21.827L394.076,22.388l18.09,17.964l-50.402,50.402 c-7.229,7.23-11.213,16.845-11.213,27.07c0,9.471,3.417,18.418,9.666,25.432L257.114,246.542z M368.178,121.493 c-0.211-1.201-0.335-2.425-0.335-3.669c0-5.607,2.185-10.878,6.149-14.843l50.422-50.423l6.351,6.35L368.178,121.493z"/><path fill="#333" d="M216.538,402.187c1.689,1.689,3.902,2.533,6.114,2.533s4.426-0.844,6.114-2.533l34.671-34.671 c3.377-3.376,3.377-8.85,0-12.226c-3.378-3.376-8.851-3.376-12.228,0l-34.671,34.671 C213.162,393.336,213.162,398.81,216.538,402.187z"/><path fill="#333" d="M235.066,426.998c1.689,1.689,3.902,2.533,6.114,2.533c2.212,0,4.426-0.844,6.114-2.533 l32.071-32.071c3.377-3.377,3.377-8.85,0-12.226c-3.378-3.377-8.851-3.377-12.228,0l-32.071,32.071 C231.69,418.148,231.69,423.622,235.066,426.998z"/><path fill="#333" d="M254.028,451.376c1.689,1.689,3.902,2.533,6.114,2.533s4.426-0.844,6.114-2.533l28.604-28.604 c3.377-3.376,3.377-8.851,0-12.226c-3.378-3.376-8.851-3.376-12.228,0l-28.604,28.604 C250.651,442.526,250.651,448.001,254.028,451.376z"/><path fill="#333" d="M271.254,477.488c1.689,1.689,3.901,2.533,6.114,2.533c2.212,0,4.426-0.844,6.114-2.533 l28.604-28.604c3.377-3.376,3.377-8.851,0-12.228c-3.376-3.375-8.85-3.376-12.228,0l-28.604,28.604 C267.878,468.638,267.878,474.113,271.254,477.488z"/><path fill="#333" d="M227.581,295.037c3.377-3.376,3.377-8.851-0.001-12.228c-3.375-3.376-8.85-3.375-12.227,0 l-9.535,9.535c-3.377,3.377-3.377,8.851,0.001,12.228c1.688,1.688,3.901,2.533,6.113,2.533s4.426-0.844,6.114-2.533 L227.581,295.037z"/></g></svg>