<?xml version="1.0" encoding="iso-8859-1"?>
<!-- Generator: Adobe Illustrator 19.0.0, SVG Export Plug-In . SVG Version: 6.00 Build 0)  -->
<svg version="1.1" id="Layer_1" xmlns="http://www.w3.org/2000/svg" xmlns:xlink="http://www.w3.org/1999/xlink" x="0px" y="0px"
	 viewBox="0 0 512 512" style="enable-background:new 0 0 512 512;" xml:space="preserve">
<polygon style="fill:#B3B3B3;" points="316.162,50.845 282.612,84.395 270.868,72.65 295.188,29.871 "/>
<path style="fill:#4D4D4D;" d="M339.948,400.103l-26.835,26.847c-20.808-20.808-36.053-43.895-46.516-62.971
	c-13.821-25.222-39.956-41.225-68.701-42.186l31.877-31.865L339.948,400.103z"/>
<polygon style="fill:#B3B3B3;" points="401.733,8.896 429.41,36.585 378.243,87.752 371.529,81.037 350.554,60.063 "/>
<rect x="178.358" y="198.962" transform="matrix(-0.7071 0.7071 -0.7071 -0.7071 510.821 223.1103)" style="fill:#CCCCCC;" width="61.689" height="36.776"/>
<polygon style="fill:#666666;" points="197.896,321.793 138.33,381.359 122.504,365.533 61.989,305.018 95.491,271.516 
	178.594,273.983 200.399,252.167 244.021,208.545 370.686,81.88 371.529,81.037 378.243,87.752 405.09,114.599 330.434,189.255 
	330.422,189.255 297.715,221.974 280.097,239.591 229.761,289.916 229.773,289.928 "/>
<polygon style="fill:#999999;" points="371.529,81.037 370.686,81.88 244.021,208.545 218.016,182.54 174.395,226.162 
	200.399,252.167 178.594,273.983 95.491,271.516 145.033,221.974 282.612,84.395 316.162,50.845 328.749,38.258 350.554,60.063 "/>
<rect x="383.502" y="359.605" transform="matrix(-0.7071 0.7071 -0.7071 -0.7071 1006.7377 447.8622)" style="fill:#4D4D4D;" width="54.223" height="145.657"/>
<polygon style="fill:#808080;" points="390.285,349.779 378.291,361.761 339.948,400.103 229.773,289.928 280.097,239.591 
	317.004,276.498 "/>
<g>
	<path style="fill:#333333;" d="M487.58,458.469l-96.703-96.703l5.698-5.698c3.475-3.475,3.475-9.108,0-12.582l-66.988-66.988
		l44.04-44.04c3.475-3.475,3.475-9.108,0-12.582l-30.619-30.619l68.368-68.368c3.475-3.475,3.475-9.108,0-12.582l-20.552-20.552
		l44.88-44.88c1.668-1.668,2.605-3.932,2.605-6.291c0-2.36-0.937-4.623-2.605-6.291L408.021,2.606
		c-3.476-3.475-9.109-3.475-12.583,0l-44.879,44.879L335.04,31.967c-1.669-1.669-3.932-2.606-6.292-2.606s-4.622,0.937-6.292,2.606
		l-6.291,6.291l-14.68-14.68c-1.962-1.963-4.735-2.898-7.482-2.526c-2.751,0.371-5.172,2.006-6.545,4.419L263.13,68.253
		c-1.98,3.482-1.389,7.857,1.443,10.689l5.452,5.452L144.164,210.257c-4.807-2.693-10.245-4.134-15.906-4.134
		c-8.715,0-16.908,3.393-23.07,9.555l-73.82,73.82c-6.161,6.162-9.556,14.355-9.556,23.07c0,8.714,3.394,16.907,9.556,23.068
		L91.4,395.666l35.539,48.806c1.53,2.102,3.905,3.431,6.5,3.634c0.231,0.018,0.463,0.027,0.693,0.027
		c2.35,0,4.617-0.931,6.292-2.606l31.037-31.038c3.475-3.475,3.475-9.108,0-12.582l-20.552-20.552l50.434-50.434
		c24.046,2.065,45.822,16.113,57.458,37.335c13.667,24.927,29.821,46.793,48.016,64.988c1.738,1.738,4.015,2.606,6.292,2.606
		c2.277,0,4.554-0.868,6.291-2.606l20.553-20.552l96.702,96.702c1.738,1.738,4.015,2.606,6.292,2.606
		c2.277,0,4.554-0.868,6.292-2.606l38.342-38.342c1.668-1.668,2.605-3.932,2.605-6.291
		C490.185,462.4,489.248,460.137,487.58,458.469z M339.951,387.524l-97.607-97.606l37.49-37.489l0.26-0.26l97.607,97.606
		L339.951,387.524z M317.003,263.913l-24.327-24.327l5.032-5.032l8.807,8.807c1.738,1.738,4.015,2.606,6.292,2.606
		c2.277,0,4.554-0.868,6.291-2.606c3.476-3.475,3.476-9.109,0.001-12.583l-8.809-8.809l20.133-20.132l24.327,24.327L317.003,263.913
		z M401.729,21.481l15.101,15.1l-38.588,38.588l-15.1-15.1L401.729,21.481z M358.946,81.04L244.022,195.965l-19.713-19.713
		c-3.476-3.475-9.109-3.475-12.583,0l-43.622,43.622c-1.668,1.668-2.605,3.932-2.605,6.291c0,2.36,0.937,4.623,2.605,6.291
		l19.715,19.713l-12.803,12.803l-58.657-1.743L328.747,50.841L358.946,81.04z M200.402,239.587l-13.422-13.422l31.038-31.038
		l13.422,13.422L200.402,239.587z M281.952,71.155l15.204-26.739l6.425,6.425l-20.972,20.971L281.952,71.155z M39.609,312.568
		c0-3.961,1.543-7.685,4.344-10.486l73.82-73.82c2.8-2.801,6.525-4.343,10.486-4.343c0.705,0,1.398,0.065,2.083,0.161
		l-74.646,74.647c-3.475,3.475-3.475,9.108,0,12.582l54.229,54.229l-11.744,11.744l-54.228-54.228
		C41.151,320.253,39.609,316.529,39.609,312.568z M135.198,425.587l-25.346-34.81l12.656-12.656l30.078,30.078L135.198,425.587z
		 M74.57,305.018l24.498-24.498l79.258,2.354c0.088,0.002,0.176,0.004,0.265,0.004c2.356,0,4.621-0.935,6.292-2.606L371.53,93.623
		l0.42,0.419c0,0.001,0.001,0.001,0.001,0.001l20.551,20.551L138.325,368.772L74.57,305.018z M313.228,414.248
		c-14.51-15.664-27.547-33.973-38.827-54.547c-12.209-22.269-33.375-38.194-57.638-44.203l12.996-12.996l97.607,97.607
		L313.228,414.248z M442.945,490.519l-90.411-90.411l25.759-25.759l90.412,90.411L442.945,490.519z"/>
	<circle style="fill:#333333;" cx="369.01" cy="118.788" r="8.898"/>
</g>
<g>
</g>
<g>
</g>
<g>
</g>
<g>
</g>
<g>
</g>
<g>
</g>
<g>
</g>
<g>
</g>
<g>
</g>
<g>
</g>
<g>
</g>
<g>
</g>
<g>
</g>
<g>
</g>
<g>
</g>
</svg>
