<svg id="Layer_3" enable-background="new 0 0 64 64" height="512" viewBox="0 0 64 64" width="512" xmlns="http://www.w3.org/2000/svg"><path d="m46 39-37-37h-7v7l37 37" fill="#758190"/><path d="m44 49 9 9 5-5-9-9" fill="#f5b953"/><path d="m52.05 54.879h9.899v4.243h-9.899z" fill="#e47c6e" transform="matrix(.707 -.707 .707 .707 -23.61 57)"/><path d="m35.308 41.672h18.385v5.657h-18.385z" fill="#e47c6e" transform="matrix(.707 -.707 .707 .707 -18.433 44.5)"/><path d="m18 39 37-37h7v7l-37 37" fill="#c1c8d1"/><path d="m20 49-9 9-5-5 9-9" fill="#f5b953"/><g fill="#e47c6e"><path d="m4.879 52.05h4.243v9.899h-4.243z" transform="matrix(.707 -.707 .707 .707 -38.255 21.645)"/><path d="m16.672 35.308h5.657v18.385h-5.657z" transform="matrix(.707 -.707 .707 .707 -25.755 26.822)"/><path d="m10.5 48.964h2v7.071h-2z" transform="matrix(.707 -.707 .707 .707 -33.755 23.509)"/><path d="m13.5 45.964h2v7.071h-2z" transform="matrix(.707 -.707 .707 .707 -30.755 24.751)"/><path d="m48.964 51.5h7.071v2h-7.071z" transform="matrix(.707 -.707 .707 .707 -21.746 52.5)"/><path d="m45.964 48.5h7.071v2h-7.071z" transform="matrix(.707 -.707 .707 .707 -20.504 49.5)"/></g></svg>